<mxfile host="65bd71144e">
    <diagram id="-2S2W-bn1XfGcOy7nWc1" name="Page-1">
        <mxGraphModel dx="529" dy="417" grid="1" gridSize="10" guides="1" tooltips="1" connect="1" arrows="1" fold="1" page="1" pageScale="1" pageWidth="850" pageHeight="1100" math="0" shadow="0">
            <root>
                <mxCell id="0"/>
                <mxCell id="1" style="locked=1;" parent="0"/>
                <mxCell id="2" value="" style="rounded=0;whiteSpace=wrap;html=1;" parent="1" vertex="1">
                    <mxGeometry x="20" y="120" width="430" height="970" as="geometry"/>
                </mxCell>
                <mxCell id="3" value="Home" style="text;html=1;align=left;verticalAlign=middle;resizable=0;points=[];autosize=1;strokeColor=none;fillColor=none;" parent="1" vertex="1">
                    <mxGeometry x="20" y="100" width="50" height="20" as="geometry"/>
                </mxCell>
                <mxCell id="9" value="Components" style="locked=1;" parent="0"/>
                <mxCell id="10" value="Nav Bar" style="rounded=0;whiteSpace=wrap;html=1;fillColor=#999999;" parent="9" vertex="1">
                    <mxGeometry x="20" y="120" width="430" height="40" as="geometry"/>
                </mxCell>
                <mxCell id="11" value="Header" style="rounded=0;whiteSpace=wrap;html=1;fillColor=#999999;" parent="9" vertex="1">
                    <mxGeometry x="85" y="160" width="300" height="100" as="geometry"/>
                </mxCell>
                <mxCell id="12" value="Recent Articles" style="rounded=0;whiteSpace=wrap;html=1;fillColor=#999999;" parent="9" vertex="1">
                    <mxGeometry x="85" y="260" width="300" height="170" as="geometry"/>
                </mxCell>
                <mxCell id="13" value="Team" style="rounded=0;whiteSpace=wrap;html=1;fillColor=#999999;" parent="9" vertex="1">
                    <mxGeometry x="85" y="577" width="300" height="140" as="geometry"/>
                </mxCell>
                <mxCell id="50" value="Reviews" style="rounded=0;whiteSpace=wrap;html=1;fillColor=#999999;" parent="9" vertex="1">
                    <mxGeometry x="85" y="430" width="300" height="150" as="geometry"/>
                </mxCell>
                <mxCell id="51" value="Email Subscription" style="rounded=0;whiteSpace=wrap;html=1;fillColor=#999999;" parent="9" vertex="1">
                    <mxGeometry x="85" y="717" width="300" height="150" as="geometry"/>
                </mxCell>
                <mxCell id="73" value="Leave Review" style="rounded=0;whiteSpace=wrap;html=1;fillColor=#999999;" parent="9" vertex="1">
                    <mxGeometry x="85" y="867" width="300" height="193" as="geometry"/>
                </mxCell>
                <mxCell id="15" value="Navbar" style="locked=1;" parent="0" visible="0"/>
                <mxCell id="19" value="Logo" style="rounded=0;whiteSpace=wrap;html=1;fillColor=#0050ef;fontColor=default;labelBackgroundColor=none;strokeColor=#001DBC;" parent="15" vertex="1">
                    <mxGeometry x="85" y="130" width="35" height="20" as="geometry"/>
                </mxCell>
                <mxCell id="20" value="Blog Title" style="rounded=0;whiteSpace=wrap;html=1;labelBackgroundColor=none;fontColor=#ffffff;fillColor=#0050ef;strokeColor=#001DBC;" parent="15" vertex="1">
                    <mxGeometry x="125" y="130" width="65" height="20" as="geometry"/>
                </mxCell>
                <mxCell id="21" value="Nav Buttons" style="rounded=0;whiteSpace=wrap;html=1;labelBackgroundColor=none;fontColor=#ffffff;fillColor=#0050ef;strokeColor=#001DBC;" parent="15" vertex="1">
                    <mxGeometry x="255" y="130" width="130" height="20" as="geometry"/>
                </mxCell>
                <mxCell id="22" value="Header" style="locked=1;" parent="0" visible="0"/>
                <mxCell id="23" value="Header Text" style="rounded=0;whiteSpace=wrap;html=1;labelBackgroundColor=none;fontColor=#ffffff;fillColor=#0050ef;strokeColor=#001DBC;" parent="22" vertex="1">
                    <mxGeometry x="99" y="175" width="120" height="20" as="geometry"/>
                </mxCell>
                <mxCell id="24" value="Sub Text" style="rounded=0;whiteSpace=wrap;html=1;labelBackgroundColor=none;fontColor=#ffffff;fillColor=#0050ef;strokeColor=#001DBC;" parent="22" vertex="1">
                    <mxGeometry x="99" y="205" width="110" height="10" as="geometry"/>
                </mxCell>
                <mxCell id="25" value="Button" style="rounded=0;whiteSpace=wrap;html=1;labelBackgroundColor=none;fontColor=#ffffff;fillColor=#0050ef;strokeColor=#001DBC;" parent="22" vertex="1">
                    <mxGeometry x="99" y="225" width="70" height="20" as="geometry"/>
                </mxCell>
                <mxCell id="26" value="Recent Articles" style="" parent="0" visible="0"/>
                <mxCell id="27" value="" style="rounded=0;whiteSpace=wrap;html=1;labelBackgroundColor=none;fontColor=#ffffff;fillColor=#0050ef;strokeColor=#001DBC;" parent="26" vertex="1">
                    <mxGeometry x="100" y="300" width="220" height="50" as="geometry"/>
                </mxCell>
                <mxCell id="31" value="Title" style="rounded=0;whiteSpace=wrap;html=1;labelBackgroundColor=none;fontColor=#ffffff;fillColor=#0050ef;strokeColor=#001DBC;" parent="26" vertex="1">
                    <mxGeometry x="100" y="270" width="90" height="20" as="geometry"/>
                </mxCell>
                <mxCell id="81" value="Thumbnail" style="rounded=1;whiteSpace=wrap;html=1;strokeWidth=2;fillWeight=4;hachureGap=8;hachureAngle=45;fillColor=#1ba1e2;sketch=1;" parent="26" vertex="1">
                    <mxGeometry x="240" y="305" width="60" height="40" as="geometry"/>
                </mxCell>
                <mxCell id="82" value="Article Title" style="text;html=1;strokeColor=none;fillColor=none;align=center;verticalAlign=middle;whiteSpace=wrap;rounded=0;" parent="26" vertex="1">
                    <mxGeometry x="100" y="303" width="80" height="15" as="geometry"/>
                </mxCell>
                <mxCell id="83" value="first part of the article" style="text;html=1;strokeColor=none;fillColor=none;align=center;verticalAlign=middle;whiteSpace=wrap;rounded=0;" parent="26" vertex="1">
                    <mxGeometry x="106" y="319" width="120" height="12" as="geometry"/>
                </mxCell>
                <mxCell id="84" value="infor about the article" style="rounded=0;whiteSpace=wrap;html=1;" parent="26" vertex="1">
                    <mxGeometry x="110" y="335" width="120" height="10" as="geometry"/>
                </mxCell>
                <mxCell id="85" value="" style="rounded=0;whiteSpace=wrap;html=1;labelBackgroundColor=none;fontColor=#ffffff;fillColor=#0050ef;strokeColor=#001DBC;" parent="26" vertex="1">
                    <mxGeometry x="100" y="360" width="220" height="50" as="geometry"/>
                </mxCell>
                <mxCell id="86" value="Thumbnail" style="rounded=1;whiteSpace=wrap;html=1;strokeWidth=2;fillWeight=4;hachureGap=8;hachureAngle=45;fillColor=#1ba1e2;sketch=1;" parent="26" vertex="1">
                    <mxGeometry x="240" y="365" width="60" height="40" as="geometry"/>
                </mxCell>
                <mxCell id="87" value="Article Title" style="text;html=1;strokeColor=none;fillColor=none;align=center;verticalAlign=middle;whiteSpace=wrap;rounded=0;" parent="26" vertex="1">
                    <mxGeometry x="100" y="363" width="80" height="15" as="geometry"/>
                </mxCell>
                <mxCell id="88" value="first part of the article" style="text;html=1;strokeColor=none;fillColor=none;align=center;verticalAlign=middle;whiteSpace=wrap;rounded=0;" parent="26" vertex="1">
                    <mxGeometry x="106" y="379" width="120" height="12" as="geometry"/>
                </mxCell>
                <mxCell id="89" value="infor about the article" style="rounded=0;whiteSpace=wrap;html=1;" parent="26" vertex="1">
                    <mxGeometry x="110" y="395" width="120" height="10" as="geometry"/>
                </mxCell>
                <mxCell id="52" value="Reviews" style="" parent="0"/>
                <mxCell id="53" value="&lt;span&gt;Review&lt;/span&gt;" style="rounded=0;whiteSpace=wrap;html=1;labelBackgroundColor=none;fontColor=#ffffff;fillColor=#0050ef;strokeColor=#001DBC;aspect=fixed;" parent="52" vertex="1">
                    <mxGeometry x="116" y="470" width="60" height="73.33" as="geometry"/>
                </mxCell>
                <mxCell id="54" value="Review" style="rounded=0;whiteSpace=wrap;html=1;labelBackgroundColor=none;fontColor=#ffffff;fillColor=#0050ef;strokeColor=#001DBC;aspect=fixed;" parent="52" vertex="1">
                    <mxGeometry x="196" y="457.78000000000003" width="80" height="97.77" as="geometry"/>
                </mxCell>
                <mxCell id="55" value="&lt;span&gt;Review&lt;/span&gt;" style="rounded=0;whiteSpace=wrap;html=1;labelBackgroundColor=none;fontColor=#ffffff;fillColor=#0050ef;strokeColor=#001DBC;aspect=fixed;" parent="52" vertex="1">
                    <mxGeometry x="296" y="470" width="60" height="73.33" as="geometry"/>
                </mxCell>
                <mxCell id="59" value="" style="endArrow=classic;html=1;fontColor=default;" parent="52" edge="1">
                    <mxGeometry width="50" height="50" relative="1" as="geometry">
                        <mxPoint x="100" y="505" as="sourcePoint"/>
                        <mxPoint x="90" y="505" as="targetPoint"/>
                    </mxGeometry>
                </mxCell>
                <mxCell id="60" value="" style="endArrow=classic;html=1;fontColor=default;" parent="52" edge="1">
                    <mxGeometry width="50" height="50" relative="1" as="geometry">
                        <mxPoint x="370" y="507" as="sourcePoint"/>
                        <mxPoint x="380" y="507" as="targetPoint"/>
                    </mxGeometry>
                </mxCell>
                <mxCell id="32" value="Team" style="locked=1;" parent="0" visible="0"/>
                <mxCell id="33" value="Title" style="rounded=0;whiteSpace=wrap;html=1;labelBackgroundColor=none;fontColor=#ffffff;fillColor=#0050ef;strokeColor=#001DBC;" parent="32" vertex="1">
                    <mxGeometry x="190" y="587" width="90" height="20" as="geometry"/>
                </mxCell>
                <mxCell id="38" value="Member" style="rounded=0;whiteSpace=wrap;html=1;labelBackgroundColor=none;fontColor=#ffffff;fillColor=#0050ef;strokeColor=#001DBC;aspect=fixed;" parent="32" vertex="1">
                    <mxGeometry x="133.62" y="617" width="60.38" height="80" as="geometry"/>
                </mxCell>
                <mxCell id="49" value="Member" style="rounded=0;whiteSpace=wrap;html=1;labelBackgroundColor=none;fontColor=#ffffff;fillColor=#0050ef;strokeColor=#001DBC;aspect=fixed;" parent="32" vertex="1">
                    <mxGeometry x="276" y="617" width="60.38" height="80" as="geometry"/>
                </mxCell>
                <mxCell id="61" value="Email Subscription" style="locked=1;" parent="0" visible="0"/>
                <mxCell id="62" value="Text" style="rounded=0;whiteSpace=wrap;html=1;labelBackgroundColor=none;fontColor=#ffffff;fillColor=#0050ef;strokeColor=#001DBC;" parent="61" vertex="1">
                    <mxGeometry x="140" y="730" width="180" height="50" as="geometry"/>
                </mxCell>
                <mxCell id="71" value="Email Input" style="rounded=0;whiteSpace=wrap;html=1;labelBackgroundColor=none;fontColor=#ffffff;fillColor=#0050ef;strokeColor=#001DBC;" parent="61" vertex="1">
                    <mxGeometry x="140" y="790" width="180" height="20" as="geometry"/>
                </mxCell>
                <mxCell id="72" value="Button" style="rounded=0;whiteSpace=wrap;html=1;labelBackgroundColor=none;fontColor=#ffffff;fillColor=#0050ef;strokeColor=#001DBC;" parent="61" vertex="1">
                    <mxGeometry x="140" y="820" width="180" height="30" as="geometry"/>
                </mxCell>
                <mxCell id="74" value="Leave Review" style="locked=1;" parent="0" visible="0"/>
                <mxCell id="75" value="Title" style="rounded=0;whiteSpace=wrap;html=1;labelBackgroundColor=none;fontColor=#ffffff;fillColor=#0050ef;strokeColor=#001DBC;" parent="74" vertex="1">
                    <mxGeometry x="190" y="870" width="100" height="20" as="geometry"/>
                </mxCell>
                <mxCell id="76" value="Email Input" style="rounded=0;whiteSpace=wrap;html=1;labelBackgroundColor=none;fontColor=#ffffff;fillColor=#0050ef;strokeColor=#001DBC;" parent="74" vertex="1">
                    <mxGeometry x="237" y="896" width="113" height="20" as="geometry"/>
                </mxCell>
                <mxCell id="77" value="Review textbox" style="rounded=0;whiteSpace=wrap;html=1;labelBackgroundColor=none;fontColor=#ffffff;fillColor=#0050ef;strokeColor=#001DBC;" parent="74" vertex="1">
                    <mxGeometry x="130" y="925" width="220" height="99" as="geometry"/>
                </mxCell>
                <mxCell id="78" value="Name" style="rounded=0;whiteSpace=wrap;html=1;labelBackgroundColor=none;fontColor=#ffffff;fillColor=#0050ef;strokeColor=#001DBC;" parent="74" vertex="1">
                    <mxGeometry x="130" y="896" width="100" height="20" as="geometry"/>
                </mxCell>
                <mxCell id="80" value="Button" style="rounded=0;whiteSpace=wrap;html=1;labelBackgroundColor=none;fontColor=#ffffff;fillColor=#0050ef;strokeColor=#001DBC;" parent="74" vertex="1">
                    <mxGeometry x="190" y="1030" width="100" height="20" as="geometry"/>
                </mxCell>
            </root>
        </mxGraphModel>
    </diagram>
</mxfile>